<svg width="57" height="46" viewBox="0 0 57 46" fill="none" xmlns="http://www.w3.org/2000/svg">
<g opacity="0.7">
<path d="M12.0011 17.0576C16.3301 17.0576 19.8385 14.0954 19.8385 10.4405C19.8385 6.78549 16.3301 3.82505 12.0011 3.82505C7.6721 3.82505 4.16367 6.78723 4.16367 10.4422C4.16367 14.0972 7.6721 17.0594 12.0011 17.0594V17.0576Z" fill="white"/>
<path d="M40.7211 9.09935C40.8014 4.63596 36.5809 0.96272 31.2944 0.894941C26.008 0.827162 21.6573 4.39051 21.5771 8.8539C21.4968 13.3173 25.7172 16.9905 31.0037 17.0583C36.2902 17.1261 40.6408 13.5627 40.7211 9.09935Z" fill="white"/>
<path d="M36.6268 18.6713H6.88114C3.08068 18.6713 0 21.2741 0 24.4828V40.1705C0 43.3793 3.08068 45.9803 6.88114 45.9803H36.6268C40.4272 45.9803 43.5079 43.3793 43.5079 40.1705V26.8894H9.24821C8.48729 26.8894 7.87239 26.3702 7.87239 25.7277C7.87239 25.0853 8.48935 24.5661 9.24821 24.5661H43.5079V24.4845C43.5079 21.2758 40.4272 18.6748 36.6268 18.6748V18.6713ZM9.39833 36.0016C10.7885 36.0016 11.9135 36.9531 11.9135 38.1251C11.9135 39.2972 10.7865 40.2487 9.39833 40.2487C8.01018 40.2487 6.8832 39.2972 6.8832 38.1251C6.8832 36.9531 8.01018 36.0016 9.39833 36.0016Z" fill="white"/>
<path d="M52.5897 23.7788L46.7204 26.7931C46.4304 26.9424 46.2535 27.2063 46.2535 27.4928V37.1572C46.2535 37.4437 46.4304 37.7094 46.7204 37.857L52.5897 40.8713C54.3912 41.7967 56.6986 40.7011 56.6986 38.9196V25.7287C56.6986 23.9472 54.3912 22.8534 52.5897 23.7771V23.7788Z" fill="white"/>
</g>
</svg>
